<svg width="87" height="72" viewBox="0 0 87 72" fill="none" xmlns="http://www.w3.org/2000/svg">
<path d="M58.2417 50.8504L43.5158 36.1245L28.7899 50.8504" stroke="#1B314B" stroke-width="4.95409" stroke-linecap="round" stroke-linejoin="round"/>
<path d="M43.5159 36.1245V69.2578" stroke="#1B314B" stroke-width="4.95409" stroke-linecap="round" stroke-linejoin="round"/>
<path d="M74.4035 59.6489C77.9942 57.6914 80.8307 54.5938 82.4655 50.8451C84.1002 47.0964 84.44 42.9101 83.4312 38.9468C82.4225 34.9835 80.1226 31.4691 76.8946 28.9581C73.6667 26.4471 69.6944 25.0825 65.6048 25.0798H60.9661C59.8518 20.7697 57.7748 16.7683 54.8915 13.3764C52.0081 9.98448 48.3933 7.29037 44.3188 5.49659C40.2444 3.70282 35.8163 2.85606 31.3674 3.01997C26.9186 3.18388 22.5648 4.35421 18.6334 6.44295C14.702 8.53169 11.2953 11.4845 8.6693 15.0794C6.04334 18.6743 4.26651 22.8177 3.47237 27.1981C2.67824 31.5786 2.88748 36.082 4.08436 40.37C5.28124 44.6579 7.43461 48.6187 10.3826 51.9546" stroke="#1B314B" stroke-width="4.95409" stroke-linecap="round" stroke-linejoin="round"/>
<path d="M58.2417 50.8504L43.5158 36.1245L28.7899 50.8504" stroke="#1B314B" stroke-width="4.95409" stroke-linecap="round" stroke-linejoin="round"/>
</svg>
