<svg width="40" height="40" viewBox="0 0 40 40" fill="none" xmlns="http://www.w3.org/2000/svg">
<path fill-rule="evenodd" clip-rule="evenodd" d="M20 0C8.95431 0 0 8.95431 0 20C0 31.0457 8.95431 40 20 40C31.0457 40 40 31.0457 40 20C40 8.95431 31.0457 0 20 0ZM15.6021 9.39779C16.7399 9.34601 17.1034 9.33334 20.0004 9.33334H19.997C22.8948 9.33334 23.2571 9.34601 24.3948 9.39779C25.5304 9.44979 26.306 9.62957 26.986 9.89335C27.6882 10.1656 28.2815 10.53 28.8749 11.1234C29.4682 11.7163 29.8327 12.3114 30.106 13.0129C30.3682 13.6912 30.5482 14.4663 30.6016 15.6019C30.6527 16.7396 30.666 17.1032 30.666 20.0001C30.666 22.897 30.6527 23.2597 30.6016 24.3975C30.5482 25.5326 30.3682 26.308 30.106 26.9864C29.8327 27.6878 29.4682 28.2829 28.8749 28.8758C28.2822 29.4691 27.688 29.8344 26.9866 30.1069C26.308 30.3707 25.532 30.5505 24.3964 30.6025C23.2586 30.6542 22.8962 30.6669 19.999 30.6669C17.1023 30.6669 16.739 30.6542 15.6012 30.6025C14.4658 30.5505 13.6905 30.3707 13.0118 30.1069C12.3107 29.8344 11.7156 29.4691 11.1229 28.8758C10.5298 28.2829 10.1654 27.6878 9.89269 26.9862C9.62913 26.308 9.44935 25.5328 9.39713 24.3973C9.34557 23.2595 9.33268 22.897 9.33268 20.0001C9.33268 17.1032 9.34602 16.7394 9.39691 15.6016C9.44802 14.4665 9.62802 13.6912 9.89247 13.0127C10.1658 12.3114 10.5303 11.7163 11.1236 11.1234C11.7165 10.5302 12.3116 10.1658 13.0132 9.89335C13.6914 9.62957 14.4665 9.44979 15.6021 9.39779Z" fill="#A2A2A2"/>
</svg>
