<svg width="15" height="18" viewBox="0 0 15 18" fill="none" xmlns="http://www.w3.org/2000/svg">
<g clip-path="url(#clip0_43_70)">
<path d="M14.1514 12.4553C14.1514 12.6361 14.1179 12.8721 14.051 13.1634C13.984 13.4547 13.9137 13.684 13.84 13.8515C13.6994 14.1863 13.2909 14.5412 12.6146 14.9162C11.9851 15.2577 11.3623 15.4285 10.7463 15.4285C10.5655 15.4285 10.388 15.4167 10.2139 15.3933C10.0398 15.3699 9.84727 15.328 9.63634 15.2678C9.4254 15.2075 9.26803 15.1589 9.16424 15.1221C9.06044 15.0853 8.87462 15.0166 8.60676 14.9162C8.3389 14.8157 8.17484 14.7555 8.11457 14.7354C7.45832 14.501 6.87238 14.2231 6.35676 13.9017C5.50631 13.3727 4.62238 12.6494 3.70497 11.732C2.78756 10.8146 2.06435 9.9307 1.53533 9.08025C1.2139 8.56463 0.936 7.97869 0.701625 7.32244C0.681536 7.26217 0.621268 7.09811 0.520822 6.83025C0.420375 6.5624 0.351737 6.37657 0.314907 6.27277C0.278076 6.16898 0.229527 6.01161 0.169259 5.80068C0.108991 5.58974 0.0671387 5.39722 0.0437012 5.22311C0.0202637 5.049 0.00854492 4.87155 0.00854492 4.69074C0.00854492 4.07467 0.179304 3.4519 0.520822 2.82244C0.895822 2.1461 1.25073 1.73762 1.58555 1.59699C1.75296 1.52333 1.98232 1.45302 2.27361 1.38606C2.56491 1.31909 2.80096 1.28561 2.98176 1.28561C3.07551 1.28561 3.14582 1.29565 3.1927 1.31574C3.31323 1.35592 3.49069 1.61039 3.72506 2.07914C3.79872 2.20637 3.89917 2.38717 4.0264 2.62155C4.15363 2.85592 4.27082 3.06853 4.37796 3.25938C4.48511 3.45023 4.5889 3.62936 4.68935 3.79677C4.70944 3.82356 4.76803 3.90726 4.86513 4.04789C4.96223 4.18851 5.03421 4.30737 5.08109 4.40447C5.12796 4.50157 5.1514 4.59699 5.1514 4.69074C5.1514 4.82467 5.05598 4.99208 4.86513 5.19298C4.67428 5.39387 4.46669 5.57802 4.24236 5.74543C4.01803 5.91284 3.81044 6.0903 3.61959 6.2778C3.42875 6.4653 3.33332 6.61932 3.33332 6.73985C3.33332 6.80012 3.35006 6.87545 3.38354 6.96586C3.41703 7.05626 3.44549 7.1249 3.46892 7.17177C3.49236 7.21865 3.53924 7.299 3.60955 7.41284C3.67986 7.52668 3.71837 7.5903 3.72506 7.60369C4.23399 8.5211 4.81658 9.30793 5.47283 9.96418C6.12908 10.6204 6.91591 11.203 7.83332 11.7119C7.84671 11.7186 7.91033 11.7571 8.02417 11.8275C8.13801 11.8978 8.21837 11.9446 8.26524 11.9681C8.31212 11.9915 8.38075 12.02 8.47116 12.0535C8.56156 12.0869 8.63689 12.1037 8.69716 12.1037C8.8177 12.1037 8.97171 12.0083 9.15921 11.8174C9.34671 11.6266 9.52417 11.419 9.69158 11.1946C9.85899 10.9703 10.0431 10.7627 10.244 10.5719C10.4449 10.381 10.6123 10.2856 10.7463 10.2856C10.84 10.2856 10.9354 10.309 11.0325 10.3559C11.1296 10.4028 11.2485 10.4748 11.3891 10.5719C11.5297 10.669 11.6135 10.7276 11.6402 10.7477C11.8077 10.8481 11.9868 10.9519 12.1776 11.059C12.3685 11.1662 12.5811 11.2834 12.8155 11.4106C13.0498 11.5378 13.2306 11.6383 13.3579 11.7119C13.8266 11.9463 14.0811 12.1238 14.1213 12.2443C14.1414 12.2912 14.1514 12.3615 14.1514 12.4553Z" fill="#2C2D2D"/>
</g>
<defs>
<clipPath id="clip0_43_70">
<rect width="14.16" height="18" fill="white" transform="matrix(1 0 0 -1 0 18)"/>
</clipPath>
</defs>
</svg>
