<svg width="18" height="18" viewBox="0 0 18 18" fill="none" xmlns="http://www.w3.org/2000/svg">
<g clip-path="url(#clip0_43_75)">
<path d="M18 7.13164V15.1071C18 15.5491 17.8426 15.9274 17.5279 16.2421C17.2132 16.5569 16.8348 16.7142 16.3929 16.7142H1.60714C1.16518 16.7142 0.78683 16.5569 0.472098 16.2421C0.157366 15.9274 0 15.5491 0 15.1071V7.13164C0.294643 7.45977 0.632812 7.75106 1.01451 8.00553C3.43862 9.65285 5.10268 10.808 6.0067 11.4709C6.38839 11.7522 6.6981 11.9715 6.93583 12.1289C7.17355 12.2862 7.48996 12.4469 7.88504 12.611C8.28013 12.7751 8.64844 12.8571 8.98995 12.8571H9H9.01004C9.35156 12.8571 9.71987 12.7751 10.115 12.611C10.51 12.4469 10.8265 12.2862 11.0642 12.1289C11.3019 11.9715 11.6116 11.7522 11.9933 11.4709C13.1317 10.6473 14.7991 9.49214 16.9955 8.00553C17.3772 7.74437 17.7121 7.45307 18 7.13164ZM18 4.17852C18 4.70754 17.8359 5.21312 17.5078 5.69526C17.1797 6.1774 16.7712 6.58923 16.2824 6.93075C13.7645 8.67852 12.1975 9.76669 11.5815 10.1953C11.5145 10.2421 11.3722 10.3443 11.1546 10.5016C10.9369 10.659 10.7561 10.7862 10.6122 10.8833C10.4682 10.9804 10.2941 11.0892 10.0898 11.2098C9.8856 11.3303 9.69308 11.4207 9.51228 11.481C9.33147 11.5412 9.16406 11.5714 9.01004 11.5714H9H8.98995C8.83594 11.5714 8.66853 11.5412 8.48772 11.481C8.30692 11.4207 8.1144 11.3303 7.91016 11.2098C7.70591 11.0892 7.53181 10.9804 7.38783 10.8833C7.24386 10.7862 7.06306 10.659 6.84542 10.5016C6.62779 10.3443 6.48549 10.2421 6.41853 10.1953C5.80915 9.76669 4.93192 9.15564 3.78683 8.36211C2.64174 7.56859 1.95536 7.09147 1.72768 6.93075C1.3125 6.6495 0.920759 6.26278 0.552455 5.7706C0.184152 5.27841 0 4.82138 0 4.3995C0 3.87718 0.138951 3.44191 0.416853 3.0937C0.694754 2.74548 1.09152 2.57138 1.60714 2.57138H16.3929C16.8281 2.57138 17.2048 2.72874 17.5229 3.04347C17.841 3.35821 18 3.73656 18 4.17852Z" fill="#2C2D2D"/>
</g>
<defs>
<clipPath id="clip0_43_75">
<rect width="18" height="18" fill="white" transform="matrix(1 0 0 -1 0 18)"/>
</clipPath>
</defs>
</svg>
