<svg width="40" height="40" viewBox="0 0 40 40" fill="none" xmlns="http://www.w3.org/2000/svg">
<path fill-rule="evenodd" clip-rule="evenodd" d="M20 0C8.95431 0 0 8.95431 0 20C0 31.0457 8.95431 40 20 40C31.0457 40 40 31.0457 40 20C40 8.95431 31.0457 0 20 0ZM15.6021 9.39779C16.7399 9.34601 17.1034 9.33334 20.0004 9.33334H19.997C22.8948 9.33334 23.2571 9.34601 24.3948 9.39779C25.5304 9.44979 26.306 9.62957 26.986 9.89335C27.6882 10.1656 28.2815 10.53 28.8749 11.1234C29.4682 11.7163 29.8327 12.3114 30.106 13.0129C30.3682 13.6912 30.5482 14.4663 30.6016 15.6019C30.6527 16.7396 30.666 17.1032 30.666 20.0001C30.666 22.897 30.6527 23.2597 30.6016 24.3975C30.5482 25.5326 30.3682 26.308 30.106 26.9864C29.8327 27.6878 29.4682 28.2829 28.8749 28.8758C28.2822 29.4691 27.688 29.8344 26.9866 30.1069C26.308 30.3707 25.532 30.5505 24.3964 30.6025C23.2586 30.6542 22.8962 30.6669 19.999 30.6669C17.1023 30.6669 16.739 30.6542 15.6012 30.6025C14.4658 30.5505 13.6905 30.3707 13.0118 30.1069C12.3107 29.8344 11.7156 29.4691 11.1229 28.8758C10.5298 28.2829 10.1654 27.6878 9.89269 26.9862C9.62913 26.308 9.44935 25.5328 9.39713 24.3973C9.34557 23.2595 9.33268 22.897 9.33268 20.0001C9.33268 17.1032 9.34602 16.7394 9.39691 15.6016C9.44802 14.4665 9.62802 13.6912 9.89247 13.0127C10.1658 12.3114 10.5303 11.7163 11.1236 11.1234C11.7165 10.5302 12.3116 10.1658 13.0132 9.89335C13.6914 9.62957 14.4665 9.44979 15.6021 9.39779Z" fill="#A2A2A2"/>
<path fill-rule="evenodd" clip-rule="evenodd" d="M19.0442 11.2556C19.23 11.2553 19.4299 11.2554 19.6456 11.2555L20.0011 11.2556C22.8492 11.2556 23.1867 11.2658 24.3114 11.3169C25.3514 11.3645 25.9159 11.5383 26.2919 11.6843C26.7896 11.8776 27.1445 12.1087 27.5176 12.4821C27.891 12.8554 28.1221 13.211 28.3159 13.7087C28.4619 14.0843 28.6359 14.6487 28.6832 15.6888C28.7343 16.8132 28.7454 17.151 28.7454 19.9977C28.7454 22.8444 28.7343 23.1822 28.6832 24.3066C28.6357 25.3466 28.4619 25.9111 28.3159 26.2866C28.1225 26.7844 27.891 27.1389 27.5176 27.512C27.1443 27.8853 26.7899 28.1164 26.2919 28.3098C25.9163 28.4564 25.3514 28.6298 24.3114 28.6773C23.1869 28.7284 22.8492 28.7396 20.0011 28.7396C17.1529 28.7396 16.8153 28.7284 15.6909 28.6773C14.6508 28.6293 14.0864 28.4556 13.7102 28.3095C13.2124 28.1162 12.8568 27.8851 12.4835 27.5118C12.1102 27.1384 11.879 26.7838 11.6853 26.2858C11.5393 25.9102 11.3653 25.3457 11.3179 24.3057C11.2668 23.1813 11.2566 22.8435 11.2566 19.995C11.2566 17.1465 11.2668 16.8105 11.3179 15.6861C11.3655 14.6461 11.5393 14.0816 11.6853 13.7056C11.8786 13.2078 12.1102 12.8523 12.4835 12.4789C12.8568 12.1056 13.2124 11.8745 13.7102 11.6807C14.0862 11.534 14.6508 11.3607 15.6909 11.3129C16.6749 11.2685 17.0562 11.2552 19.0442 11.2529V11.2556ZM25.6981 13.0267C24.9914 13.0267 24.418 13.5994 24.418 14.3063C24.418 15.013 24.9914 15.5863 25.6981 15.5863C26.4047 15.5863 26.9781 15.013 26.9781 14.3063C26.9781 13.5996 26.4047 13.0263 25.6981 13.0263V13.0267ZM14.5255 20.0001C14.5255 16.975 16.978 14.5224 20.0031 14.5222C23.0282 14.5222 25.4803 16.9749 25.4803 20.0001C25.4803 23.0252 23.0285 25.4768 20.0033 25.4768C16.9782 25.4768 14.5255 23.0252 14.5255 20.0001Z" fill="#A2A2A2"/>
<path fill-rule="evenodd" clip-rule="evenodd" d="M20.0009 16.4446C21.9645 16.4446 23.5565 18.0364 23.5565 20.0002C23.5565 21.9637 21.9645 23.5558 20.0009 23.5558C18.0371 23.5558 16.4453 21.9637 16.4453 20.0002C16.4453 18.0364 18.0371 16.4446 20.0009 16.4446V16.4446Z" fill="#A2A2A2"/>
</svg>
