<svg width="40" height="40" viewBox="0 0 40 40" fill="none" xmlns="http://www.w3.org/2000/svg">
<path fill-rule="evenodd" clip-rule="evenodd" d="M20 40C31.0457 40 40 31.0457 40 20C40 8.95431 31.0457 0 20 0C8.95431 0 0 8.95431 0 20C0 31.0457 8.95431 40 20 40ZM16.333 29.1667C16.8194 29.1667 17.0417 28.9503 17.3104 28.6887L17.333 28.6667L19.7359 26.3302L24.7345 30.0232C25.6543 30.5307 26.3181 30.268 26.5472 29.1693L29.828 13.7088C30.1639 12.3621 29.3147 11.7513 28.4348 12.1508L9.16977 19.5793C7.85475 20.1067 7.86242 20.8404 8.93007 21.1673L13.8739 22.7103L25.3194 15.4895C25.8597 15.1618 26.3556 15.338 25.9486 15.6992L16.6745 24.0684L16.6758 24.0694L16.6733 24.0679L16.333 29.1667Z" fill="#A2A2A2"/>
</svg>
