<svg width="40" height="40" viewBox="0 0 40 40" fill="none" xmlns="http://www.w3.org/2000/svg">
<path fill-rule="evenodd" clip-rule="evenodd" d="M20 0C8.95431 0 0 8.95431 0 20C0 31.0457 8.95431 40 20 40C31.0457 40 40 31.0457 40 20C40 8.95431 31.0457 0 20 0ZM21.6278 26.3135C21.4306 26.5214 21.0456 26.5634 21.0456 26.5634H19.7705C19.7705 26.5634 16.9575 26.7293 14.4794 24.1975C11.7769 21.4352 9.39063 15.9546 9.39063 15.9546C9.39063 15.9546 9.2529 15.5951 9.40211 15.422C9.5701 15.2264 10.0282 15.2141 10.0282 15.2141L13.076 15.1947C13.076 15.1947 13.3629 15.2407 13.5685 15.3893C13.7385 15.5122 13.8335 15.7406 13.8335 15.7406C13.8335 15.7406 14.326 16.9635 14.9781 18.0696C16.2521 20.2297 16.8448 20.7018 17.2768 20.4704C17.907 20.1334 17.7181 17.4172 17.7181 17.4172C17.7181 17.4172 17.7296 16.4319 17.4009 15.9925C17.1463 15.6525 16.6664 15.5531 16.4545 15.5255C16.2824 15.5029 16.5641 15.1117 16.9293 14.9366C17.4781 14.6733 18.4464 14.658 19.591 14.6692C20.4832 14.6785 20.7398 14.7327 21.0883 14.8157C21.8972 15.0073 21.8719 15.6213 21.8174 16.9464C21.8011 17.3427 21.7822 17.8026 21.7822 18.3339C21.7822 18.4532 21.7787 18.5805 21.775 18.7114C21.7561 19.3903 21.7345 20.1677 22.1902 20.4571C22.4239 20.6045 22.9947 20.4786 24.4231 18.0983C25.1003 16.9696 25.6074 15.6433 25.6074 15.6433C25.6074 15.6433 25.719 15.4067 25.8912 15.3053C26.0675 15.2018 26.3054 15.2336 26.3054 15.2336L29.5129 15.2141C29.5129 15.2141 30.477 15.1004 30.6325 15.5285C30.7963 15.9761 30.2725 17.0229 28.962 18.7374C27.7188 20.3642 27.1138 20.9632 27.1694 21.4929C27.2099 21.88 27.6032 22.2301 28.3578 22.9172C29.9332 24.3529 30.3554 25.1083 30.4569 25.2897C30.4653 25.3048 30.4715 25.3159 30.4759 25.3231C31.1823 26.4733 29.6923 26.5634 29.6923 26.5634L26.8428 26.6023C26.8428 26.6023 26.2313 26.7211 25.4258 26.1783C25.0039 25.8942 24.5915 25.4302 24.1988 24.9882C23.599 24.3132 23.045 23.6896 22.5721 23.837C21.778 24.0848 21.802 25.7635 21.802 25.7635C21.802 25.7635 21.8083 26.123 21.6278 26.3135Z" fill="#A2A2A2"/>
</svg>
