<svg width="40" height="40" viewBox="0 0 40 40" fill="none" xmlns="http://www.w3.org/2000/svg">
<path fill-rule="evenodd" clip-rule="evenodd" d="M20 0C8.95431 0 0 8.95431 0 20C0 31.0457 8.95431 40 20 40C31.0457 40 40 31.0457 40 20C40 8.95431 31.0457 0 20 0ZM28.334 13.1245C29.252 13.3764 29.9749 14.1186 30.2202 15.0611C30.666 16.7693 30.666 20.3334 30.666 20.3334C30.666 20.3334 30.666 23.8974 30.2202 25.6057C29.9749 26.5482 29.252 27.2904 28.334 27.5424C26.6705 28.0001 19.9994 28.0001 19.9994 28.0001C19.9994 28.0001 13.3282 28.0001 11.6646 27.5424C10.7466 27.2904 10.0237 26.5482 9.77838 25.6057C9.33268 23.8974 9.33268 20.3334 9.33268 20.3334C9.33268 20.3334 9.33268 16.7693 9.77838 15.0611C10.0237 14.1186 10.7466 13.3764 11.6646 13.1245C13.3282 12.6667 19.9994 12.6667 19.9994 12.6667C19.9994 12.6667 26.6705 12.6667 28.334 13.1245Z" fill="#A2A2A2"/>
<path fill-rule="evenodd" clip-rule="evenodd" d="M18.0012 23.9999V17.3333L23.3346 20.6667L18.0012 23.9999Z" fill="#A2A2A2"/>
</svg>
